HIERARCHY
ROOT root
{
	OFFSET 0.000000 0.000000 0.000000
	CHANNELS 6 Xposition Yposition Zposition Zrotation Yrotation Xrotation
	JOINT lhip
	{
		OFFSET 0.058581 -0.082280 -0.017664
		CHANNELS 3 Zrotation Yrotation Xrotation
		JOINT lknee
		{
			OFFSET 0.043451 -0.386469 0.008037
			CHANNELS 3 Zrotation Yrotation Xrotation
			JOINT lankle
			{
				OFFSET -0.014790 -0.426874 -0.037428
				CHANNELS 3 Zrotation Yrotation Xrotation
				JOINT ltoe
				{
					OFFSET 0.041054 -0.060286 0.122042
					CHANNELS 3 Zrotation Yrotation Xrotation
					End Site
					{
						OFFSET 0.000000 0.000000 0.000000
					}
				}
			}
		}
	}
	JOINT rhip
	{
		OFFSET -0.060310 -0.090513 -0.013543
		CHANNELS 3 Zrotation Yrotation Xrotation
		JOINT rknee
		{
			OFFSET -0.043257 -0.383688 -0.004843
			CHANNELS 3 Zrotation Yrotation Xrotation
			JOINT rankle
			{
				OFFSET 0.019056 -0.420046 -0.034562
				CHANNELS 3 Zrotation Yrotation Xrotation
				JOINT rtoe
				{
					OFFSET -0.034840 -0.062106 0.130323
					CHANNELS 3 Zrotation Yrotation Xrotation
					End Site
					{
						OFFSET 0.000000 0.000000 0.000000
					}
				}
			}
		}
	}
	JOINT lowerback
	{
		OFFSET 0.004439 0.124404 -0.038385
		CHANNELS 3 Zrotation Yrotation Xrotation
		JOINT upperback
		{
			OFFSET 0.004488 0.137956 0.026820
			CHANNELS 3 Zrotation Yrotation Xrotation
			JOINT chest
			{
				OFFSET -0.002265 0.056032 0.002855
				CHANNELS 3 Zrotation Yrotation Xrotation
				JOINT lowerneck
				{
					OFFSET -0.013390 0.211636 -0.033468
					CHANNELS 3 Zrotation Yrotation Xrotation
					JOINT upperneck
					{
						OFFSET 0.010113 0.088937 0.050410
						CHANNELS 3 Zrotation Yrotation Xrotation
						End Site
						{
							OFFSET 0.000000 0.000000 0.000000
						}
					}
				}
				JOINT lclavicle
				{
					OFFSET 0.071702 0.114000 -0.018898
					CHANNELS 3 Zrotation Yrotation Xrotation
					JOINT lshoulder
					{
						OFFSET 0.122921 0.045205 -0.019046
						CHANNELS 3 Zrotation Yrotation Xrotation
						JOINT lelbow
						{
							OFFSET 0.255332 -0.015649 -0.022946
							CHANNELS 3 Zrotation Yrotation Xrotation
							JOINT lwrist
							{
								OFFSET 0.265709 0.012698 -0.007375
								CHANNELS 3 Zrotation Yrotation Xrotation
								End Site
								{
									OFFSET 0.000000 0.000000 0.000000
								}
							}
						}
					}
				}
				JOINT rclavicle
				{
					OFFSET -0.082954 0.112472 -0.023707
					CHANNELS 3 Zrotation Yrotation Xrotation
					JOINT rshoulder
					{
						OFFSET -0.113228 0.046853 -0.008472
						CHANNELS 3 Zrotation Yrotation Xrotation
						JOINT relbow
						{
							OFFSET -0.260127 -0.014369 -0.031269
							CHANNELS 3 Zrotation Yrotation Xrotation
							JOINT rwrist
							{
								OFFSET -0.269108 0.006794 -0.006027
								CHANNELS 3 Zrotation Yrotation Xrotation
								End Site
								{
									OFFSET 0.000000 0.000000 0.000000
								}
							}
						}
					}
				}
			}
		}
	}
}
MOTION
Frames: 8
Frame Time: 0.033333
-0.386020 -0.051253 0.994464 -118.215713 -0.046978 83.124727 5.189009 -2.595331 -3.615732 -4.107524 -18.865471 18.191964 4.746409 8.943798 -18.740866 0.000000 -0.000000 0.000000 4.579500 1.946110 0.604756 5.516092 15.330321 14.157093 -0.551809 -5.811990 -9.495020 0.000000 -0.000000 0.000000 1.088787 -1.761933 4.769588 4.687309 -4.984236 6.961872 0.466817 -3.513179 4.524020 3.765451 2.800241 6.039915 -0.850709 10.141516 35.911335 -22.784471 5.185969 7.389924 -66.067684 -6.780142 4.436430 11.516776 -25.931372 14.279776 -4.029163 -4.475766 -11.938177 17.844688 -6.315815 4.887520 61.970082 0.615117 7.072718 -18.684898 37.323927 -0.461673 30.742945 15.001613 -23.733937 
-0.395303 -0.052607 0.993873 -119.311085 -0.034676 84.202250 5.118679 -2.728797 -6.286806 -4.407102 -18.009340 18.519548 5.094939 8.643159 -18.217481 0.000000 -0.000000 0.000000 4.405733 1.505523 -0.531512 5.694164 17.217467 15.168918 -1.062469 -5.926438 -10.008097 0.000000 -0.000000 0.000000 1.291608 -2.377014 4.214190 4.697358 -5.795497 6.172319 0.391950 -3.826918 4.666386 3.035195 2.178219 5.872193 -0.417858 10.935261 35.992842 -22.694472 4.969592 7.557756 -66.059296 -6.976228 4.164594 11.904194 -26.054025 14.059466 -4.193179 -4.311671 -11.896563 17.339013 -6.529615 5.363611 62.119666 0.106478 6.376612 -19.454507 35.936539 -1.426445 33.125846 14.664554 -23.472515 
-0.408202 -0.052551 0.994352 -120.505384 -0.209087 83.432505 4.271045 -2.835873 -6.316378 -3.964368 -17.666217 19.077019 4.979131 8.635793 -18.002131 0.000000 -0.000000 0.000000 4.099129 1.945436 1.188102 5.183613 17.921536 15.109335 -0.785188 -5.461737 -10.824651 0.000000 -0.000000 0.000000 1.329828 -2.692976 4.917577 4.498508 -6.481276 6.593559 0.396803 -4.103963 4.281257 2.824109 1.914792 5.952638 -0.425157 11.254267 35.952303 -22.696478 4.589466 7.606517 -66.104562 -7.372028 4.150430 12.701061 -26.121585 13.513463 -3.628243 -4.623224 -11.320356 17.009839 -6.621469 5.035628 62.302356 -1.038096 5.989808 -19.476540 34.394947 -2.208472 34.326106 15.260897 -25.160448 
-0.418887 -0.052891 0.994868 -122.277846 0.043251 83.470000 4.083259 -4.446015 -6.974946 -4.065556 -19.368018 19.878369 4.824400 8.511648 -18.020539 0.000000 -0.000000 0.000000 4.276675 2.836969 1.749719 5.024188 19.052582 15.342271 -0.505370 -5.670488 -11.228750 0.000000 -0.000000 0.000000 1.673274 -2.805998 4.968990 4.611168 -6.413692 6.409520 0.517165 -4.194065 4.122625 2.409512 1.265848 6.353394 -0.259627 12.155697 35.230711 -23.085024 4.443014 7.774403 -66.281190 -7.627218 4.093351 13.952473 -27.325432 13.049246 -6.239391 -4.363785 -10.974738 16.661232 -6.826085 5.209382 61.945322 -2.294410 4.964881 -19.873125 32.802906 -2.270048 37.803332 14.673401 -22.774024 
-0.426656 -0.052362 0.994905 -124.226564 0.159123 83.452763 3.967002 -5.349017 -7.028295 -4.447409 -21.825184 20.203994 4.977588 7.852869 -18.286639 0.000000 -0.000000 0.000000 4.117818 3.187382 2.332468 5.252062 20.459001 15.168344 -0.134544 -5.676675 -11.254252 0.000000 -0.000000 0.000000 1.596112 -2.493873 4.919769 4.824435 -6.213076 6.114671 0.596578 -4.110792 4.489027 2.166943 1.347784 6.301790 -0.227047 12.279836 34.993432 -22.643473 4.064328 7.685266 -66.300617 -8.078523 4.825667 13.167414 -27.471039 12.793958 -4.602460 -4.531295 -11.838452 16.662666 -6.861140 5.068511 61.620787 -3.306278 5.115683 -19.946469 32.019989 -2.599998 38.571391 14.235224 -22.514652 
-0.436450 -0.051527 0.994985 -127.127554 0.268977 83.309023 3.601986 -7.088094 -6.354628 -4.421063 -26.277153 20.072824 4.460729 7.026653 -19.128588 0.000000 -0.000000 0.000000 4.365340 3.913255 2.687458 4.889049 21.960802 15.938070 0.325601 -5.068006 -12.136562 0.000000 -0.000000 0.000000 1.601370 -2.302407 5.128062 4.742220 -5.707081 5.815562 0.677997 -3.927786 4.321482 2.176214 1.314047 6.631713 -0.234439 12.532203 34.353859 -22.965739 4.280161 7.625730 -65.869372 -8.139016 5.195599 13.431120 -29.017746 12.379135 -5.353461 -4.656125 -12.583338 16.717867 -6.730672 4.948722 61.490885 -3.815136 4.643813 -18.698898 29.531603 -2.445682 39.585980 14.337125 -21.596591 
-0.444833 -0.051087 0.994666 -130.322611 0.257311 83.521008 3.721010 -9.352487 -6.232821 -5.485153 -29.359445 20.657706 4.308535 6.448829 -20.358394 0.000000 -0.000000 0.000000 4.042278 4.987951 2.995332 5.158203 23.824716 15.878864 0.601001 -5.213721 -12.388446 0.000000 -0.000000 0.000000 1.016759 -2.185085 5.031520 4.895915 -5.416302 5.300157 0.812646 -3.923215 4.706789 2.258771 1.268930 6.454203 -0.339732 12.137486 34.163974 -22.960382 5.448494 7.275815 -65.887958 -8.368411 5.857083 13.506428 -30.765067 12.267493 -4.064149 -4.941082 -13.822188 16.829243 -6.676952 5.477282 61.151969 -3.636563 5.512822 -18.854220 28.293570 -1.560657 40.344372 13.307204 -21.149971 
-0.454133 -0.051176 0.994493 -133.647562 0.339660 83.942403 3.771283 -10.697134 -6.157199 -5.887289 -31.993880 20.935298 3.750961 5.417525 -21.135650 0.000000 -0.000000 0.000000 3.725758 5.760375 2.765732 5.159278 25.235999 16.237560 1.100247 -4.357905 -13.065618 0.000000 -0.000000 0.000000 0.932834 -1.910112 4.699451 4.856130 -5.147835 5.024413 0.726947 -3.901314 4.509041 2.250047 1.306430 6.783749 -0.352571 12.190517 33.494446 -22.721419 5.821828 7.443062 -65.836926 -8.001672 6.465905 13.485326 -32.449040 12.452118 -4.163195 -5.493942 -16.022839 16.989758 -6.492224 5.424745 61.365184 -3.580062 5.842486 -18.870446 26.290301 -1.071324 41.247851 13.305634 -20.618099 
